<svg version="1.1" xmlns="http://www.w3.org/2000/svg" xmlns:xlink="http://www.w3.org/1999/xlink" width="304.8048" height="304.8048" viewBox="0,0,304.8048,304.8048"><g transform="translate(-87.5976,-27.5976)"><g data-paper-data="{&quot;isPaintingLayer&quot;:true}" fill-rule="nonzero" stroke-linejoin="miter" stroke-miterlimit="10" stroke-dasharray="" stroke-dashoffset="0" style="mix-blend-mode: normal"><g><path d="M259.84,169.09195c3.68545,0.44944 12.17954,2.48984 12.17954,2.48984c0,0 0.35379,5.51393 0,7.28288c-0.35379,1.76895 -1.18921,2.75243 -2.2602,4.01814c-1.07099,1.26572 -0.61608,1.73612 -3.26474,2.51134c-2.64865,0.77522 -3.99961,1.24562 -7.03174,0.93195c-3.03213,-0.31367 -6.12916,-0.28439 -7.82046,-1.14971c-1.69131,-0.86532 -2.20871,-1.34386 -3.40796,-3.80232c-1.19925,-2.45846 -1.09474,-6.03182 -1.32826,-7.7832c-0.23351,-1.75137 0.25114,-4.52041 0.25114,-4.52041h4.26927c0,0 5.35032,-0.35206 8.41342,0.02149z" fill="#ffffff" stroke="#000000" stroke-width="0" stroke-linecap="round"/><path d="M264.94717,170.32613c0,0 -0.21626,3.43699 0.04063,5.77608c0.25689,2.33909 -0.10314,4.66327 -0.25113,6.0272c-0.14799,1.36393 0.12613,2.24584 -1.00823,3.26474c-1.13436,1.0189 -2.40349,1.10406 -3.74484,1.00454c-1.34135,-0.09953 -2.36973,-0.20123 -3.52695,-1.50681c-1.15722,-1.30558 -0.90645,-1.70812 -1.37016,-4.01814c-0.4637,-2.31002 -0.38716,-3.90756 -0.14403,-6.02721c0.24313,-2.11965 0.43579,-5.77607 0.43579,-5.77607z" fill="#ff0000" stroke="#4d4d4d" stroke-width="0" stroke-linecap="round"/><path d="M259.69028,175.86325c0,1.778 -0.88607,4.13972 -1.10066,5.30674c-0.21549,1.17185 -0.51358,1.14533 -0.84292,1.14533c-0.29179,0 -0.55904,0.30776 -0.76606,-0.637c-0.25934,-1.18356 0.32927,-4.08461 0.32927,-6.0662c0,-1.64856 -0.63935,-4.15441 -0.45168,-5.29492c0.21797,-1.32471 0.53525,-0.90601 0.88847,-0.90601c0.39192,0 0.7396,-0.35119 0.95646,1.23338c0.14686,1.07305 0.98712,3.77992 0.98712,5.21868z" fill="#ffffff" stroke="none" stroke-width="0" stroke-linecap="butt"/><path d="M262.63474,172.13273c0,0.36576 -0.09208,1.20749 -0.24446,1.4648c-0.18602,0.31411 -0.46191,0.00593 -0.76984,0.00593c-0.3368,0 -0.63526,0.26912 -0.81974,-0.09725c-0.12235,-0.24299 -0.19456,-1.04958 -0.19456,-1.37348c0,-0.34049 0.07979,-0.95824 0.21375,-1.2075c0.18561,-0.34538 0.47519,-0.26323 0.80054,-0.26323c0.30304,0 0.57503,0.09126 0.76089,0.39675c0.15771,0.25923 0.25341,0.70112 0.25341,1.07398z" fill="#ffffff" stroke="none" stroke-width="0" stroke-linecap="butt"/><path d="M247.16185,169.53547c0,0 1.4741,-0.8244 4.48952,-1.32958c1.77713,-0.29773 8.79142,-2.40017 10.07169,-2.40017c1.489,0 -2.2222,1.42884 -1.19274,1.9553c0.40471,0.20697 7.65297,-0.82595 9.4551,-0.60699c1.15048,0.13979 -3.04307,1.5337 -2.48629,1.6653c3.64745,0.86212 8.03627,0.50226 8.03627,0.50226c0,0 -1.85508,1.06286 -2.51712,2.14422c-0.36286,0.59269 0.33544,1.19094 0.25692,1.62278c-0.22177,1.21972 0.08911,1.53116 0,2.51134c-0.08911,0.98018 0.03114,1.9468 -0.50227,3.01361c-0.53341,1.06681 -1.75794,1.5068 -1.75794,1.5068c0,0 0.19754,-1.83465 0.25113,-3.0136c0.05359,-1.17896 0.27661,-1.57085 0,-2.51134c-0.27661,-0.94049 -0.53207,-1.30569 -1.25567,-1.75794c-0.7236,-0.45225 -2.81543,-1.49878 -4.77154,-2.00907c-1.95611,-0.51029 -4.12451,-0.67253 -6.78061,-1.00454c-2.6561,-0.33201 -9.29194,-1.00453 -9.29194,-1.00453z" fill="#1a1a1a" stroke="#4d4d4d" stroke-width="1" stroke-linecap="round"/><path d="M255.08649,183.38509c-0.46371,-2.31003 9.79817,-2.61961 9.65018,-1.25568c-0.14799,1.36393 0.12613,2.24584 -1.00823,3.26474c-1.13436,1.0189 -2.40349,1.10406 -3.74484,1.00454c-1.34135,-0.09953 -2.36973,-0.20123 -3.52695,-1.50681c-1.15722,-1.30558 -0.90645,-1.70812 -1.37016,-4.01814z" fill="#ff8080" stroke="#4d4d4d" stroke-width="0" stroke-linecap="round"/></g><g><path d="M222.0828,168.06474c3.0631,-0.37355 8.41342,-0.02149 8.41342,-0.02149h4.26927c0,0 0.48465,2.76904 0.25114,4.52041c-0.23352,1.75138 -0.12901,5.32474 -1.32826,7.7832c-1.19925,2.45846 -1.71665,2.937 -3.40796,3.80232c-1.6913,0.86532 -4.78833,0.83604 -7.82046,1.14971c-3.03213,0.31367 -4.38309,-0.15673 -7.03174,-0.93195c-2.64866,-0.77522 -2.19375,-1.24562 -3.26474,-2.51134c-1.07099,-1.26571 -1.90641,-2.24919 -2.2602,-4.01814c-0.35379,-1.76895 0,-7.28288 0,-7.28288c0,0 8.49409,-2.0404 12.17954,-2.48984z" fill="#ffffff" stroke="#000000" stroke-width="0" stroke-linecap="round"/><path d="M226.54456,168.04325c0,0 0.19266,3.65642 0.43579,5.77607c0.24313,2.11965 0.31967,3.71719 -0.14403,6.02721c-0.46371,2.31002 -0.21294,2.71256 -1.37016,4.01814c-1.15722,1.30558 -2.1856,1.40728 -3.52695,1.50681c-1.34135,0.09952 -2.61048,0.01436 -3.74484,-1.00454c-1.13436,-1.0189 -0.86024,-1.90081 -1.00823,-3.26474c-0.14799,-1.36393 -0.50802,-3.68811 -0.25113,-6.0272c0.25689,-2.33909 0.04063,-5.77608 0.04063,-5.77608z" fill="#ff0000" stroke="#4d4d4d" stroke-width="0" stroke-linecap="round"/><path d="M223.21965,169.61736c0.21686,-1.58457 0.56454,-1.23338 0.95646,-1.23338c0.35322,0 0.6705,-0.4187 0.88847,0.90601c0.18767,1.14051 -0.45168,3.64635 -0.45168,5.29491c0,1.98159 0.58861,4.88265 0.32927,6.06621c-0.20702,0.94476 -0.47427,0.637 -0.76606,0.637c-0.32934,0 -0.62743,0.02652 -0.84292,-1.14533c-0.21459,-1.16702 -1.10066,-3.52874 -1.10066,-5.30674c0,-1.43876 0.84026,-4.14563 0.98712,-5.21868z" fill="#ffffff" stroke="none" stroke-width="0" stroke-linecap="butt"/><path d="M219.28809,171.10552c0,-0.37286 0.0957,-0.81475 0.25341,-1.07398c0.18586,-0.30549 0.45785,-0.39675 0.76089,-0.39675c0.32535,0 0.61493,-0.08215 0.80054,0.26323c0.13396,0.24926 0.21375,0.86701 0.21375,1.2075c0,0.3239 -0.07221,1.13049 -0.19456,1.37348c-0.18448,0.36637 -0.48294,0.09725 -0.81974,0.09725c-0.30793,0 -0.58382,0.30818 -0.76984,-0.00593c-0.15238,-0.25731 -0.24446,-1.09904 -0.24446,-1.4648z" fill="#ffffff" stroke="none" stroke-width="0" stroke-linecap="butt"/><path d="M232.75643,167.79212c0,0 -6.63584,0.67252 -9.29194,1.00453c-2.6561,0.33201 -4.8245,0.49425 -6.78061,1.00454c-1.95611,0.51029 -4.04794,1.55682 -4.77154,2.00907c-0.7236,0.45225 -0.97906,0.81745 -1.25567,1.75794c-0.27661,0.94049 -0.05359,1.33238 0,2.51134c0.05359,1.17895 0.25113,3.0136 0.25113,3.0136c0,0 -1.22453,-0.43999 -1.75794,-1.5068c-0.53341,-1.06681 -0.41316,-2.03343 -0.50227,-3.01361c-0.08911,-0.98018 0.22177,-1.29162 0,-2.51134c-0.07851,-0.43184 0.61979,-1.03009 0.25692,-1.62279c-0.66204,-1.08136 -2.51712,-2.14422 -2.51712,-2.14422c0,0 4.38882,0.35986 8.03627,-0.50226c0.55678,-0.13161 -3.63677,-1.52552 -2.48629,-1.6653c1.80214,-0.21896 9.05039,0.81395 9.45511,0.60699c1.02946,-0.52645 -2.68175,-1.9553 -1.19275,-1.9553c1.28027,0 8.29457,2.10244 10.07169,2.40017c3.01542,0.50518 4.48952,1.32958 4.48952,1.32958z" fill="#1a1a1a" stroke="#4d4d4d" stroke-width="1" stroke-linecap="round"/><path d="M226.83632,179.84653c-0.46371,2.31002 -0.21294,2.71256 -1.37016,4.01814c-1.15722,1.30558 -2.1856,1.40728 -3.52695,1.50681c-1.34135,0.09952 -2.61048,0.01436 -3.74484,-1.00454c-1.13436,-1.0189 -0.86024,-1.90081 -1.00823,-3.26474c-0.14799,-1.36393 10.11389,-1.05436 9.65018,1.25567z" fill="#ff8080" stroke="#4d4d4d" stroke-width="0" stroke-linecap="round"/></g><path d="M249.47812,159.73033c0,0 2.38788,-1.70852 10.24141,-1.49564c6.96103,0.18868 10.31397,2.08451 10.31397,2.08451" fill="none" stroke="#4d4d4d" stroke-width="1" stroke-linecap="round"/><path d="M210.93723,159.73336c0,0 3.35294,-1.89583 10.31397,-2.08451c7.85353,-0.21288 10.24141,1.49564 10.24141,1.49564" fill="none" stroke="#4d4d4d" stroke-width="1" stroke-linecap="round"/><path d="M87.5976,332.4024v-304.8048h304.8048v304.8048z" fill="none" stroke="none" stroke-width="0" stroke-linecap="butt"/></g></g></svg>