<svg version="1.1" xmlns="http://www.w3.org/2000/svg" xmlns:xlink="http://www.w3.org/1999/xlink" width="304.8048" height="304.8048" viewBox="0,0,304.8048,304.8048"><g transform="translate(-87.5976,-27.5976)"><g data-paper-data="{&quot;isPaintingLayer&quot;:true}" fill-rule="nonzero" stroke-linejoin="miter" stroke-miterlimit="10" stroke-dasharray="" stroke-dashoffset="0" style="mix-blend-mode: normal"><g><path d="M270.92632,170.83316l1.06513,8.17474c0,0 -0.89621,2.55069 -2.66285,3.93598c-1.76664,1.3853 -1.69565,1.9694 -5.05941,2.11938c-3.36376,0.14997 -6.87346,-1.07539 -8.52112,-1.51385c-1.64766,-0.43846 -2.82825,-0.67161 -3.99428,-1.8166c-1.16602,-1.145 -1.43251,-2.21884 -1.864,-3.93598c-0.43149,-1.71715 -0.56231,-3.13904 -0.26628,-4.54153c0.29604,-1.40249 1.864,-3.02768 1.864,-3.02768z" fill="#ffffff" stroke="#4d4d4d" stroke-width="0" stroke-linecap="round"/><path d="M265.6006,170.53037c0,0 0.69435,1.7998 0.79885,3.02768c0.10451,1.22788 0.11473,3.87958 0,6.35813c-0.11473,2.47855 -0.53257,5.14705 -0.53257,5.14705c0,0 -2.44319,0.17635 -3.99427,0c-1.55107,-0.17635 -3.99427,-0.9083 -3.99427,-0.9083c0,0 -1.11459,-2.3088 -1.33143,-3.93598c-0.21684,-1.62719 -0.19421,-3.70001 0,-6.05535c0.19421,-2.35535 0.79885,-3.63321 0.79885,-3.63321z" fill="#ff0000" stroke="#000000" stroke-width="0" stroke-linecap="round"/><path d="M260.98242,175.73209c0,0.98755 -0.05882,3.48706 -0.1618,4.28837c-0.21404,1.66543 -0.61889,1.2161 -1.08308,1.2161c-0.37516,0 -0.84988,0.52438 -1.07811,-0.63632c-0.19003,-0.96643 -0.16676,-3.48697 -0.16676,-4.86816c0,-1.08621 0.07116,-2.72803 0.19398,-3.58112c0.22093,-1.53448 0.60903,-1.92335 1.05089,-1.92335c0.37869,0 0.71789,0.11859 0.94621,1.29829c0.1862,0.96208 0.29866,2.84061 0.29866,4.20618z" fill="#ffffff" stroke="#000000" stroke-width="0" stroke-linecap="butt"/><path d="M250.1561,170.53038c0,0 3.51666,-1.40246 5.85827,-1.8166c2.3416,-0.41414 3.73725,-0.51991 6.12455,-0.30277c2.38729,0.21716 4.34304,1.76937 7.18969,1.51385c2.84665,-0.25553 2.92913,-2.42215 2.92913,-2.42215l-0.26628,3.33045c0,0 0.66801,1.99146 0.79885,3.33045c0.13084,1.33898 0.50706,3.04262 0,4.84429c-0.50706,1.80167 -2.13028,2.7249 -2.13028,2.7249c0,0 0.37378,-2.7694 0.26628,-4.54151c-0.10749,-1.77211 -0.79885,-4.23875 -0.79885,-4.23875c0,0 -4.17832,-1.37072 -6.9234,-1.8166c-2.74509,-0.44588 -4.86535,-0.46059 -7.98855,-0.60553c-3.12319,-0.14494 -5.05941,0 -5.05941,0z" fill="#1a1a1a" stroke="#4d4d4d" stroke-width="1" stroke-linecap="round"/><path d="M266.39951,181.65556c-0.1106,1.65352 -0.51342,3.43377 -0.51342,3.43377c0,0 -2.35532,0.11765 -3.85061,0c-1.49529,-0.11765 -3.85061,-0.60596 -3.85061,-0.60596c0,0 -1.0745,-1.54027 -1.28354,-2.62584c-0.20904,-1.08555 9.60878,-1.85549 9.49818,-0.20198z" fill="#ff8080" stroke="#000000" stroke-width="0" stroke-linecap="round"/><path d="M263.49073,172.6296c0,0.84195 -0.4648,1.52447 -1.54705,1.52447c-1.08226,0 -0.72196,-0.68252 -0.72196,-1.52447c0,-0.84195 0.05225,-0.58633 1.13451,-0.58633c1.08226,0 1.13451,-0.25561 1.13451,0.58633z" fill="#ffffff" stroke="none" stroke-width="0" stroke-linecap="butt"/></g><g><path d="M230.2587,169.20587c0,0 1.56796,1.62519 1.864,3.02768c0.29604,1.40249 0.16521,2.82437 -0.26628,4.54153c-0.43149,1.71714 -0.69798,2.79098 -1.864,3.93598c-1.16602,1.14499 -2.34662,1.37815 -3.99428,1.81661c-1.64766,0.43846 -5.15735,1.66382 -8.52112,1.51385c-3.36377,-0.14998 -3.29277,-0.73408 -5.05941,-2.11938c-1.76664,-1.38529 -2.66285,-3.93598 -2.66285,-3.93598l1.06513,-8.17474z" fill="#ffffff" stroke="#4d4d4d" stroke-width="0" stroke-linecap="round"/><path d="M224.40045,169.50863c0,0 0.60465,1.27787 0.79886,3.63322c0.19421,2.35533 0.21684,4.42816 0,6.05535c-0.21684,1.62718 -1.33142,3.93598 -1.33142,3.93598c0,0 -2.4432,0.73194 -3.99427,0.9083c-1.55108,0.17636 -3.99426,0 -3.99426,0c0,0 -0.41784,-2.6685 -0.53258,-5.14704c-0.11473,-2.47854 -0.10451,-5.13025 0,-6.35813c0.10451,-1.22788 0.79886,-3.02768 0.79886,-3.02768z" fill="#ff0000" stroke="#000000" stroke-width="0" stroke-linecap="round"/><path d="M220.7638,174.71035c0,-1.36558 0.11246,-3.2441 0.29866,-4.20618c0.22832,-1.17971 0.56752,-1.29829 0.94621,-1.29829c0.44186,0 0.82997,0.38886 1.0509,1.92334c0.12282,0.85309 0.19397,2.49491 0.19397,3.58112c0,1.38118 0.02328,3.90173 -0.16676,4.86816c-0.22823,1.16069 -0.70296,0.63631 -1.07811,0.63631c-0.46418,0 -0.86903,0.44932 -1.08308,-1.2161c-0.10298,-0.80131 -0.1618,-3.30082 -0.1618,-4.28837z" fill="#ffffff" stroke="#000000" stroke-width="0" stroke-linecap="butt"/><path d="M231.59012,169.50865c0,0 -1.93622,-0.14494 -5.05941,0c-3.12319,0.14495 -5.24345,0.15966 -7.98854,0.60554c-2.74508,0.44588 -6.9234,1.8166 -6.9234,1.8166c0,0 -0.69137,2.46663 -0.79886,4.23874c-0.10749,1.77211 0.26628,4.54152 0.26628,4.54152c0,0 -1.62321,-0.92323 -2.13027,-2.7249c-0.50706,-1.80167 -0.13085,-3.50532 0,-4.84429c0.13085,-1.33899 0.79885,-3.33044 0.79885,-3.33044l-0.26628,-3.33044c0,0 0.08249,2.16662 2.92914,2.42215c2.84665,0.25553 4.80239,-1.29669 7.18969,-1.51385c2.38729,-0.21714 3.78294,-0.11138 6.12455,0.30276c2.34161,0.41414 5.85827,1.8166 5.85827,1.8166z" fill="#1a1a1a" stroke="#4d4d4d" stroke-width="1" stroke-linecap="round"/><path d="M215.34673,180.63379c-0.11061,-1.65351 9.70723,-0.88356 9.49818,0.20199c-0.20904,1.08557 -1.28354,2.62583 -1.28354,2.62583c0,0 -2.35532,0.4883 -3.85062,0.60595c-1.49529,0.11766 -3.85062,0 -3.85062,0c0,0 -0.40281,-1.78024 -0.51342,-3.43376z" fill="#ff8080" stroke="#000000" stroke-width="0" stroke-linecap="round"/><path d="M218.25548,171.60785c0,-0.84195 0.05225,-0.58633 1.13451,-0.58633c1.08226,0 1.13451,-0.25562 1.13451,0.58633c0,0.84195 0.36031,1.52447 -0.72195,1.52447c-1.08226,0 -1.54706,-0.68252 -1.54706,-1.52447z" fill="#ffffff" stroke="none" stroke-width="0" stroke-linecap="butt"/></g><path d="M249.47812,159.73033c0,0 2.38788,-1.70852 10.24141,-1.49564c6.96103,0.18868 10.31397,2.08451 10.31397,2.08451" fill="none" stroke="#4d4d4d" stroke-width="1" stroke-linecap="round"/><path d="M210.93723,159.73336c0,0 3.35294,-1.89583 10.31397,-2.08451c7.85353,-0.21288 10.24141,1.49564 10.24141,1.49564" fill="none" stroke="#4d4d4d" stroke-width="1" stroke-linecap="round"/><path d="M87.5976,332.4024v-304.8048h304.8048v304.8048z" fill="none" stroke="none" stroke-width="0" stroke-linecap="butt"/></g></g></svg>