<svg version="1.1" xmlns="http://www.w3.org/2000/svg" xmlns:xlink="http://www.w3.org/1999/xlink" width="304.8048" height="304.8048" viewBox="0,0,304.8048,304.8048"><g transform="translate(-87.5976,-27.5976)"><g data-paper-data="{&quot;isPaintingLayer&quot;:true}" fill-rule="nonzero" stroke-linejoin="miter" stroke-miterlimit="10" stroke-dasharray="" stroke-dashoffset="0" style="mix-blend-mode: normal"><g><path d="M266.73898,170.11979l6.27636,1l1.85966,7.5l-1.39475,5.25c0,0 -4.02676,0.90451 -7.61849,0.75c-3.59173,-0.15451 -12.97201,-0.5866 -14.0001,-1.25c-1.02809,-0.6634 -3.41313,-8.83468 -3.48687,-10.5c-0.07373,-1.66532 1.39475,-4 1.39475,-4z" fill="#ffffff" stroke="#4d4d4d" stroke-width="0" stroke-linecap="round"/><path d="M263.375,169.11979c0,0 0.99256,2.29368 1.5,5c0.50744,2.70632 0.97964,5.3925 0.75,7c-0.22964,1.6075 -2.25,3.5 -2.25,3.5l-6.75,-0.5c0,0 -1.25716,-3.36297 -1.5,-5.5c-0.24284,-2.13703 -0.03365,-4.04124 0.25,-5.5c0.28365,-1.45876 1.5,-3.5 1.5,-3.5z" fill="#ff0000" stroke="#000000" stroke-width="0" stroke-linecap="round"/><path d="M262.71429,172.56845c0,0.82843 -0.25794,0.78571 -0.92857,0.78571c-0.67063,0 -1.5,0.04271 -1.5,-0.78571c0,-0.33603 0.08945,-1.21769 0.24054,-1.46775c0.22139,-0.36642 0.57514,-0.03225 0.97375,-0.03225c0.32927,0 0.91365,0.1619 1.13238,0.42477c0.22676,0.27252 0.0819,0.65356 0.0819,1.07523z" fill="#ffffff" stroke="none" stroke-width="0" stroke-linecap="butt"/><path d="M259.83338,174.30813c0,1.02947 0.10256,2.54419 -0.04221,3.30448c-0.20663,1.08514 -0.72158,1.21998 -1.08891,1.21998c-0.40187,0 -0.7548,-0.46128 -0.95544,-1.72458c-0.11125,-0.70045 -0.17568,-1.90859 -0.17568,-2.79989c0,-1.16807 0.11066,-2.98684 0.29233,-3.78956c0.20697,-0.91449 0.5061,-0.73491 0.83879,-0.73491c0.33752,0 0.64051,-0.53979 0.84776,0.398c0.17634,0.79791 0.28336,2.97776 0.28336,4.12647z" fill="#ffffff" stroke="none" stroke-width="0" stroke-linecap="butt"/><path d="M247.625,169.11979c0,0 6.51165,-1.4281 10.75,-1.75c4.23835,-0.3219 5.55899,-0.48333 9,0.25c3.44101,0.73333 4.35205,1.04274 6.25,3c1.89795,1.95726 2.71269,8.34141 2.25,10.25c-0.46269,1.90859 -2.5,3.25 -2.5,3.25c0,0 0.73739,-3.05338 0.5,-5c-0.23739,-1.94662 -0.54855,-3.44782 -1.75,-5.25c-1.20145,-1.80218 -7.70545,-3.46194 -10.25,-3.75c-2.54455,-0.28806 -4.10602,-0.56446 -6.75,-0.75c-2.64398,-0.18554 -7.5,-0.25 -7.5,-0.25z" fill="#1a1a1a" stroke="#4d4d4d" stroke-width="1" stroke-linecap="round"/><path d="M265.625,181.11979c-0.22964,1.6075 -2.25,3.5 -2.25,3.5l-6.75,-0.5c0,0 -1.25716,-3.36297 -1.5,-5.5c-0.24284,-2.13703 10.72964,0.89251 10.5,2.5z" fill="#ff8080" stroke="#000000" stroke-width="0" stroke-linecap="round"/></g><g><path d="M232.19067,168.86979c0,0 1.46848,2.33468 1.39475,4c-0.07374,1.66532 -2.45878,9.8366 -3.48687,10.5c-1.02809,0.6634 -10.40837,1.09549 -14.0001,1.25c-3.59173,0.15451 -7.61849,-0.75 -7.61849,-0.75l-1.39475,-5.25l1.85966,-7.5l6.27636,-1z" fill="#ffffff" stroke="#4d4d4d" stroke-width="0" stroke-linecap="round"/><path d="M225.08521,169.61979c0,0 1.21635,2.04124 1.5,3.5c0.28365,1.45876 0.49284,3.36297 0.25,5.5c-0.24284,2.13703 -1.5,5.5 -1.5,5.5l-6.75,0.5c0,0 -2.02036,-1.8925 -2.25,-3.5c-0.22964,-1.6075 0.24256,-4.29368 0.75,-7c0.50744,-2.70632 1.5,-5 1.5,-5z" fill="#ff0000" stroke="#000000" stroke-width="0" stroke-linecap="round"/><path d="M219.32782,171.49322c0.21873,-0.26287 0.80311,-0.42477 1.13238,-0.42477c0.39861,0 0.75236,-0.33417 0.97375,0.03225c0.15109,0.25006 0.24054,1.13172 0.24054,1.46775c0,0.82842 -0.82937,0.78571 -1.5,0.78571c-0.67063,0 -0.92857,0.04272 -0.92857,-0.78571c0,-0.42167 -0.14486,-0.80271 0.0819,-1.07523z" fill="#ffffff" stroke="none" stroke-width="0" stroke-linecap="butt"/><path d="M222.12683,174.30812c0,-1.14871 0.10702,-3.32856 0.28336,-4.12647c0.20725,-0.93779 0.51024,-0.398 0.84776,-0.398c0.33269,0 0.63182,-0.17958 0.83879,0.73491c0.18167,0.80272 0.29233,2.62149 0.29233,3.78956c0,0.8913 -0.06443,2.09944 -0.17568,2.79989c-0.20064,1.2633 -0.55357,1.72458 -0.95544,1.72458c-0.36733,0 -0.88228,-0.13484 -1.08891,-1.21998c-0.14477,-0.76029 -0.04221,-2.27501 -0.04221,-3.30448z" fill="#ffffff" stroke="none" stroke-width="0" stroke-linecap="butt"/><path d="M226.83521,169.36979c-2.64398,0.18554 -4.20545,0.46194 -6.75,0.75c-2.54455,0.28806 -9.04855,1.94782 -10.25,3.75c-1.20145,1.80218 -1.51261,3.30338 -1.75,5.25c-0.23739,1.94662 0.5,5 0.5,5c0,0 -2.03731,-1.34141 -2.5,-3.25c-0.46269,-1.90859 0.35205,-8.29274 2.25,-10.25c1.89795,-1.95726 2.80899,-2.26667 6.25,-3c3.44101,-0.73333 4.76165,-0.5719 9,-0.25c4.23835,0.3219 10.75,1.75 10.75,1.75c0,0 -4.85602,0.06446 -7.5,0.25z" fill="#1a1a1a" stroke="#4d4d4d" stroke-width="1" stroke-linecap="round"/><path d="M226.83521,178.61979c-0.24284,2.13703 -1.5,5.5 -1.5,5.5l-6.75,0.5c0,0 -2.02036,-1.8925 -2.25,-3.5c-0.22964,-1.60749 10.74284,-4.63703 10.5,-2.5z" fill="#ff8080" stroke="#000000" stroke-width="0" stroke-linecap="round"/></g><path d="M249.47812,159.73033c0,0 2.38788,-1.70852 10.24141,-1.49564c6.96103,0.18868 10.31397,2.08451 10.31397,2.08451" fill="none" stroke="#4d4d4d" stroke-width="1" stroke-linecap="round"/><path d="M210.93723,159.73336c0,0 3.35294,-1.89583 10.31397,-2.08451c7.85353,-0.21288 10.24141,1.49564 10.24141,1.49564" fill="none" stroke="#4d4d4d" stroke-width="1" stroke-linecap="round"/><path d="M87.5976,332.4024v-304.8048h304.8048v304.8048z" fill="none" stroke="none" stroke-width="0" stroke-linecap="butt"/></g></g></svg>