<svg version="1.1" xmlns="http://www.w3.org/2000/svg" xmlns:xlink="http://www.w3.org/1999/xlink" width="304.8048" height="304.8048" viewBox="0,0,304.8048,304.8048"><g transform="translate(-87.5976,-27.5976)"><g data-paper-data="{&quot;isPaintingLayer&quot;:true}" fill-rule="nonzero" stroke-linejoin="miter" stroke-miterlimit="10" stroke-dasharray="" stroke-dashoffset="0" style="mix-blend-mode: normal"><path d="M230.96734,139.75085c0,0 -2.43641,0.50318 -6.0272,3.85895c-3.59079,3.35576 -12.41448,11.77798 -14.56575,19.03748c-2.15127,7.25951 -2.14752,14.63866 -2.26021,19.29476c-0.11269,4.6561 1.50681,11.83411 1.50681,11.83411l-3.26474,-5.6598l-0.7534,10.29053c0,0 -2.84756,-6.80102 -4.26927,-13.63495c-1.42171,-6.83393 -1.94665,-13.13379 -2.26021,-17.75117c-0.31355,-4.61738 -0.59369,-4.53957 0.25114,-11.83412c0.46213,-3.99019 1.39557,-9.15749 2.1464,-13.02015c0.62178,-3.19874 1.62061,-5.5028 1.62061,-5.5028" fill="#ff4d4d" stroke="#ff8080" stroke-width="1" stroke-linecap="round"/><path d="M278.85341,137.41224c0,0 2.41991,11.22841 3.26474,18.52296c0.84483,7.29456 0.56469,7.21674 0.25114,11.83411c-0.31356,4.61738 -0.8385,10.91724 -2.26021,17.75117c-1.42171,6.83393 -4.26927,13.63496 -4.26927,13.63496l-0.7534,-10.29053l-3.26474,5.6598c0,0 1.61949,-7.178 1.5068,-11.8341c-0.11269,-4.6561 -0.10893,-12.03525 -2.2602,-19.29476c-2.15127,-7.2595 -10.97496,-15.68172 -14.56575,-19.03748c-3.59079,-3.35576 -6.0272,-3.85895 -6.0272,-3.85895" fill="#ff4d4d" stroke="#ff8080" stroke-width="1" stroke-linecap="round"/><path d="M87.5976,332.4024v-304.8048h304.8048v304.8048z" fill="none" stroke="none" stroke-width="0" stroke-linecap="butt"/></g></g></svg>