<svg version="1.1" xmlns="http://www.w3.org/2000/svg" xmlns:xlink="http://www.w3.org/1999/xlink" width="304.8048" height="304.8048" viewBox="0,0,304.8048,304.8048"><g transform="translate(-87.5976,-27.5976)"><g data-paper-data="{&quot;isPaintingLayer&quot;:true}" fill-rule="nonzero" stroke-linejoin="miter" stroke-miterlimit="10" stroke-dasharray="" stroke-dashoffset="0" style="mix-blend-mode: normal"><path d="M278.75952,137.97237c0,0 1.22873,2.41489 1.83466,5.5486c0.88296,4.56648 1.28981,10.9415 1.6606,15.93327c0.62522,8.41736 1.17596,11.42315 0.74653,18.71993c-0.42944,7.29678 -0.86004,12.10556 -2.98611,19.33369c-2.12607,7.22813 -6.22105,11.96849 -6.22105,11.96849c0,0 1.26761,-7.49456 1.39628,-10.45688c0.11948,-2.75043 -0.64975,-6.72861 -0.64975,-6.72861c0,0 -1.38401,4.32395 -2.73726,6.75144c-1.35325,2.42749 -2.73726,3.06884 -2.73726,3.06884c0,0 1.21702,-3.27717 1.49306,-5.52392c0.27603,-2.24675 1.21787,-8.9678 0.99536,-14.73043c-0.22251,-5.76263 -0.49687,-10.91841 -2.23958,-17.49239c-1.7427,-6.57397 -3.38506,-9.07028 -6.22105,-14.42355c-2.83598,-5.35326 -5.97221,-8.59275 -5.97221,-8.59275" fill="#ff4d4d" stroke="#ff8080" stroke-width="1" stroke-linecap="round"/><path d="M260.00326,140.75253c0,0 -1.4392,-0.13399 -6.88834,2.04079c-5.44915,2.17478 -13.14704,5.69021 -21.17651,9.94603c-8.02946,4.25582 -8.54113,4.59348 -13.31095,8.33317c-4.76981,3.73969 -5.26486,4.24898 -7.2605,7.79554c-1.99565,3.54656 -1.77597,5.6656 -2.42018,9.40842c-0.64421,3.74282 -1.51261,13.4406 -1.51261,13.4406c0,0 -6.29319,-10.97142 -7.26738,-19.29794c-0.84993,-7.26451 0.42122,-23.45356 1.53319,-30.88565c0.35648,-2.38266 1.51839,-3.86529 1.51839,-3.86529" fill="#ff4d4d" stroke="#ff8080" stroke-width="1" stroke-linecap="round"/><path d="M87.5976,332.4024v-304.8048h304.8048v304.8048z" fill="none" stroke="none" stroke-width="0" stroke-linecap="butt"/></g></g></svg>