<svg version="1.1" xmlns="http://www.w3.org/2000/svg" xmlns:xlink="http://www.w3.org/1999/xlink" width="304.8048" height="304.8048" viewBox="0,0,304.8048,304.8048"><g transform="translate(-87.5976,-27.5976)"><g data-paper-data="{&quot;isPaintingLayer&quot;:true}" fill-rule="nonzero" stroke-linejoin="miter" stroke-miterlimit="10" stroke-dasharray="" stroke-dashoffset="0" style="mix-blend-mode: normal"><path d="M229.75,139.73958c0,0 -12.14316,10.87107 -15,14c-2.85684,3.12893 -3.46238,3.57872 -6,9c-2.53762,5.42128 -5,14.5 -5,14.5c0,0 -4.19645,-7.57604 -5,-13c-0.80355,-5.42396 -0.02938,-8.02958 1,-14c1.02938,-5.97042 4,-15 4,-15" fill="#ff4d4d" stroke="#ff8080" stroke-width="1" stroke-linecap="round"/><path d="M278.2934,136.45526c0,0 2.5793,2.93463 4.04884,11.80581c1.46954,8.87119 1.6596,19.60203 1.64828,22.81757c-0.01132,3.21554 -3.25518,7.56919 -3.25518,7.56919c0,0 0.88838,-4.18473 -4.44911,-12.80072c-5.33749,-8.616 -9.48743,-14.03609 -16.08411,-20.34481c-6.59668,-6.30872 -10.41209,-4.99124 -10.41209,-4.99124" fill="#ff4d4d" stroke="#ff8080" stroke-width="1" stroke-linecap="round"/><path d="M258.14598,140.06515c0,0 2.5116,-0.08739 4.4289,6.82897c1.91731,6.91635 2.52189,15.64569 2.51286,18.21223c-0.00903,2.56654 -2.59818,6.04148 -2.59818,6.04148c0,0 0.70909,-3.34012 -3.55113,-10.21712c-4.26021,-6.877 -7.57256,-11.20313 -12.83781,-16.23855c-5.26526,-5.03541 -8.31059,-5.1811 -8.31059,-5.1811" fill="#ff4d4d" stroke="#ff8080" stroke-width="1" stroke-linecap="round"/><path d="M239.25,138.73958c0,0 2.40941,-0.71447 6,5.5c3.59059,6.21447 6.36508,14.51322 7,17c0.63492,2.48678 -1,6.5 -1,6.5c0,0 -0.15125,-3.41119 -6,-9c-5.84875,-5.58881 -10.14018,-8.94599 -16.5,-12.5c-6.35982,-3.55401 -17.5,-6.5 -17.5,-6.5" fill="#ff4d4d" stroke="#ff8080" stroke-width="1" stroke-linecap="round"/><path d="M87.5976,332.4024v-304.8048h304.8048v304.8048z" fill="none" stroke="none" stroke-width="0" stroke-linecap="butt"/></g></g></svg>