<svg version="1.1" xmlns="http://www.w3.org/2000/svg" xmlns:xlink="http://www.w3.org/1999/xlink" width="304.8048" height="304.8048" viewBox="0,0,304.8048,304.8048"><g transform="translate(-87.5976,-27.5976)"><g data-paper-data="{&quot;isPaintingLayer&quot;:true}" fill-rule="nonzero" stroke-linejoin="miter" stroke-miterlimit="10" stroke-dasharray="" stroke-dashoffset="0" style="mix-blend-mode: normal"><path d="M251.36728,141.7378c0,0 -2.51434,1.57236 -4.4993,3.88933c-1.98497,2.31696 -2.56827,2.70287 -4.21523,6.28276c-1.64696,3.5799 -2.43701,5.88879 -3.01087,9.42415c-0.57386,3.53537 0,9.12497 0,9.12497l-14.25146,0.29918c0,0 -0.91296,-3.19898 -1.00362,-6.88113c-0.09066,-3.68215 0.24677,-7.21696 0.60217,-9.42415c0.35541,-2.20719 1.80653,-5.53481 1.80653,-5.53481c0,0 -2.39011,2.75364 -3.41233,5.83399c-1.02222,3.08035 -1.00339,4.75308 -1.20435,8.07784c-0.20095,3.32477 0.20073,8.52661 0.20073,8.52661l-13.04711,1.19672c0,0 -1.21723,-6.64208 -1.40508,-8.97538c-0.18785,-2.33329 -0.16064,-3.55982 0.20073,-5.9836c0.36137,-2.42378 1.6058,-6.13317 1.6058,-6.13317c0,0 -3.02849,4.87069 -3.73041,7.03072c-0.70192,2.16002 -0.40145,2.5881 -0.40145,5.6844c0,3.09631 0.40145,7.92825 0.40145,7.92825l-7.42682,1.64549c0,0 -1.30595,-2.95443 -1.40508,-8.97538c-0.09914,-6.02095 0.34945,-11.14194 1.00362,-15.40774c0.65417,-4.26579 3.01087,-10.77047 3.01087,-10.77047l3.81377,-7.03071" fill="#ff4d4d" stroke="#ff8080" stroke-width="1" stroke-linecap="round"/><path d="M278.86566,139.80305c0,0 0.79806,17.451 1.46611,23.09524c0.66806,5.64422 0.44366,9.7626 -0.02254,14.61366c-0.4662,4.85106 -0.23088,5.34001 -2.53893,12.04004c-2.30805,6.70001 -4.90543,12.43246 -7.22616,16.30696c-2.32074,3.8745 -7.41931,8.14388 -7.41931,8.14388c0,0 2.94031,-3.47187 4.54237,-10.38928c1.60205,-6.91742 2.22928,-9.31773 2.08555,-18.22896c-0.14372,-8.91123 -0.86384,-15.7423 -2.74278,-22.51997c-1.87894,-6.77766 -3.66989,-10.57284 -7.79433,-15.48918c-4.12444,-4.91636 -12.83914,-9.106 -12.83914,-9.106" fill="#ff4d4d" stroke="#ff8080" stroke-width="1" stroke-linecap="round"/><path d="M87.5976,332.4024v-304.8048h304.8048v304.8048z" fill="none" stroke="none" stroke-width="0" stroke-linecap="butt"/></g></g></svg>