<svg version="1.1" xmlns="http://www.w3.org/2000/svg" xmlns:xlink="http://www.w3.org/1999/xlink" width="304.8048" height="304.8048" viewBox="0,0,304.8048,304.8048"><g transform="translate(-87.5976,-27.5976)"><g data-paper-data="{&quot;isPaintingLayer&quot;:true}" fill-rule="nonzero" stroke-linejoin="miter" stroke-miterlimit="10" stroke-dasharray="" stroke-dashoffset="0" style="mix-blend-mode: normal"><path d="M230.71621,139.75085c0,0 -2.43641,0.50318 -6.0272,3.85895c-3.59079,3.35576 -12.41448,11.77798 -14.56575,19.03748c-2.15127,7.25951 -2.14752,14.63866 -2.26021,19.29476c-0.11269,4.6561 1.50681,11.83411 1.50681,11.83411l-3.26474,-5.6598l-0.7534,10.29053c0,0 -2.84756,-6.80102 -4.26927,-13.63495c-1.42171,-6.83393 -1.94665,-13.13379 -2.26021,-17.75117c-0.31355,-4.61738 -0.59369,-4.53957 0.25114,-11.83412c0.49991,-4.31638 1.55133,-10.01019 2.32652,-13.93994c0.53485,-2.7114 1.69162,-4.58301 1.69162,-4.58301" fill="#ff4d4d" stroke="#ff8080" stroke-width="1" stroke-linecap="round"/><path d="M278.60228,137.41224c0,0 2.41991,11.22841 3.26474,18.52296c0.84483,7.29456 0.56469,7.21674 0.25114,11.83411c-0.31356,4.61738 -0.8385,10.91724 -2.26021,17.75117c-1.42171,6.83393 -4.26927,13.63496 -4.26927,13.63496l-0.7534,-10.29053l-3.26474,5.6598c0,0 1.61949,-7.178 1.5068,-11.8341c-0.11269,-4.6561 -0.10893,-12.03525 -2.2602,-19.29476c-2.15127,-7.2595 -10.97496,-15.68172 -14.56575,-19.03748c-3.59079,-3.35576 -6.0272,-3.85895 -6.0272,-3.85895" fill="#ff4d4d" stroke="#ff8080" stroke-width="1" stroke-linecap="round"/><path d="M250.55489,140.17954c0,0 1.43252,4.85172 2.76246,8.28741c1.32995,3.43569 1.46691,4.37028 1.50681,7.28287c0.0399,2.9126 -1.25567,11.04988 -1.25567,11.04988l-5.2738,-9.04081c0,0 0.761,5.66958 0.50226,9.29194c-0.25874,3.62237 -0.37562,3.1413 -1.5068,4.77154c-1.13118,1.63023 -3.51888,5.57094 -7.03174,7.53401c-3.51287,1.96307 -10.04534,2.00907 -10.04534,2.00907c0,0 1.56074,-4.36876 2.00906,-7.28287c0.44833,-2.91412 0.81305,-5.51866 0.50227,-9.04081c-0.31078,-3.52214 -2.00907,-8.03628 -2.00907,-8.03628c0,0 0.04519,4.14494 -1.25566,6.27835c-1.30086,2.13341 -5.02267,4.01814 -5.02267,4.01814c0,0 2.80312,-6.44888 2.76247,-10.79875c-0.04065,-4.34987 -4.01814,-17.83049 -4.01814,-17.83049" fill="#ff4d4d" stroke="#ff8080" stroke-width="1" stroke-linecap="round"/><path d="M87.5976,332.4024v-304.8048h304.8048v304.8048z" fill="none" stroke="none" stroke-width="0" stroke-linecap="butt"/></g></g></svg>