<svg version="1.1" xmlns="http://www.w3.org/2000/svg" xmlns:xlink="http://www.w3.org/1999/xlink" width="304.8048" height="304.8048" viewBox="0,0,304.8048,304.8048"><g transform="translate(-87.5976,-27.5976)"><g data-paper-data="{&quot;isPaintingLayer&quot;:true}" fill-rule="nonzero" stroke-linejoin="miter" stroke-miterlimit="10" stroke-dasharray="" stroke-dashoffset="0" style="mix-blend-mode: normal"><path d="M224.44926,141.09697c0,0 -3.13623,3.23948 -5.97221,8.59275c-2.83598,5.35326 -4.47834,7.84958 -6.22104,14.42355c-1.7427,6.57397 -2.01707,11.72976 -2.23958,17.49238c-0.22251,5.76262 0.71933,12.48369 0.99536,14.73043c0.27604,2.24675 1.49306,5.52392 1.49306,5.52392c0,0 -1.38401,-0.64135 -2.73726,-3.06884c-1.35325,-2.42749 -2.73726,-6.75144 -2.73726,-6.75144c0,0 -0.76924,3.97818 -0.64975,6.72861c0.12867,2.96232 1.39628,10.45689 1.39628,10.45689c0,0 -4.09498,-4.74036 -6.22105,-11.96849c-2.12607,-7.22813 -2.55667,-12.03691 -2.98611,-19.33369c-0.42944,-7.29678 0.12131,-10.30257 0.74653,-18.71992c0.37078,-4.99177 0.77764,-11.36679 1.6606,-15.93328c0.60593,-3.13371 1.83466,-5.5486 1.83466,-5.5486" fill="#ff4d4d" stroke="#ff8080" stroke-width="1" stroke-linecap="round"/><path d="M277.86102,136.91479c0,0 3.13192,25.40863 2.05298,35.00207c-0.93646,8.32652 -6.986,19.29794 -6.986,19.29794c0,0 -0.83478,-9.69778 -1.45404,-13.4406c-0.61927,-3.74282 -0.40809,-5.86186 -2.32647,-9.40842c-1.91838,-3.54656 -2.39426,-4.05585 -6.97939,-7.79554c-4.58513,-3.73969 -5.07699,-4.07734 -12.79559,-8.33316c-7.71858,-4.25582 -15.11844,-7.77125 -20.35661,-9.94603c-5.23816,-2.17479 -6.62164,-2.04079 -6.62164,-2.04079" fill="#ff4d4d" stroke="#ff8080" stroke-width="1" stroke-linecap="round"/><path d="M87.5976,332.4024v-304.8048h304.8048v304.8048z" fill="none" stroke="none" stroke-width="0" stroke-linecap="butt"/></g></g></svg>