<svg version="1.1" xmlns="http://www.w3.org/2000/svg" xmlns:xlink="http://www.w3.org/1999/xlink" width="304.8048" height="304.8048" viewBox="0,0,304.8048,304.8048"><g transform="translate(-87.5976,-27.5976)"><g data-paper-data="{&quot;isPaintingLayer&quot;:true}" fill-rule="nonzero" stroke-linejoin="miter" stroke-miterlimit="10" stroke-dasharray="" stroke-dashoffset="0" style="mix-blend-mode: normal"><path d="M275.41787,131.8168l3.81377,7.03071c0,0 2.3567,6.50468 3.01087,10.77047c0.65417,4.2658 1.10276,9.38679 1.00362,15.40774c-0.09913,6.02095 -1.40508,8.97538 -1.40508,8.97538l-7.42682,-1.64549c0,0 0.40145,-4.83194 0.40145,-7.92825c0,-3.0963 0.30047,-3.52438 -0.40145,-5.6844c-0.70192,-2.16003 -3.73041,-7.03072 -3.73041,-7.03072c0,0 1.24443,3.70939 1.6058,6.13317c0.36137,2.42378 0.38858,3.65031 0.20073,5.9836c-0.18785,2.3333 -1.40508,8.97538 -1.40508,8.97538l-13.04711,-1.19672c0,0 0.40168,-5.20184 0.20073,-8.52661c-0.20096,-3.32476 -0.18213,-4.99749 -1.20435,-8.07784c-1.02222,-3.08035 -3.41233,-5.83399 -3.41233,-5.83399c0,0 1.45112,3.32762 1.80653,5.53481c0.3554,2.20719 0.69283,5.742 0.60217,9.42415c-0.09066,3.68215 -1.00362,6.88113 -1.00362,6.88113l-14.25146,-0.29918c0,0 0.57386,-5.5896 0,-9.12497c-0.57386,-3.53536 -1.36391,-5.84425 -3.01087,-9.42415c-1.64696,-3.57989 -2.23026,-3.9658 -4.21523,-6.28276c-1.98496,-2.31697 -4.4993,-3.88933 -4.4993,-3.88933" fill="#ff4d4d" stroke="#ff8080" stroke-width="1" stroke-linecap="round"/><path d="M234.04121,138.52057c0,0 -8.7147,4.18964 -12.83914,9.106c-4.12444,4.91634 -5.91539,8.71152 -7.79433,15.48918c-1.87894,6.77767 -2.59906,13.60874 -2.74278,22.51997c-0.14373,8.91123 0.4835,11.31154 2.08555,18.22896c1.60206,6.91741 4.54237,10.38928 4.54237,10.38928c0,0 -5.09857,-4.26938 -7.41931,-8.14388c-2.32073,-3.8745 -4.91811,-9.60695 -7.22616,-16.30696c-2.30805,-6.70003 -2.07273,-7.18898 -2.53893,-12.04004c-0.4662,-4.85106 -0.6906,-8.96944 -0.02254,-14.61366c0.66805,-5.64424 1.4661,-23.09524 1.4661,-23.09524" fill="#ff4d4d" stroke="#ff8080" stroke-width="1" stroke-linecap="round"/><path d="M87.5976,332.4024v-304.8048h304.8048v304.8048z" fill="none" stroke="none" stroke-width="0" stroke-linecap="butt"/></g></g></svg>