<svg version="1.1" xmlns="http://www.w3.org/2000/svg" xmlns:xlink="http://www.w3.org/1999/xlink" width="304.8048" height="304.8048" viewBox="0,0,304.8048,304.8048"><g transform="translate(-87.5976,-27.5976)"><g data-paper-data="{&quot;isPaintingLayer&quot;:true}" fill-rule="nonzero" stroke-linejoin="miter" stroke-miterlimit="10" stroke-dasharray="" stroke-dashoffset="0" style="mix-blend-mode: normal"><path d="M277.50513,136.04538c0,0 3.71591,11.80703 4.62964,17.05139c0.91374,5.24436 0.817,14.20949 0.817,14.20949l-7.35296,0.31578c0,0 -0.16231,-3.74839 -1.36166,-6.94686c-1.19935,-3.19847 -2.99565,-7.5784 -2.99565,-7.5784c0,0 -0.1045,0.65723 0.54466,4.42073c0.64916,3.76349 0.81699,9.78875 0.81699,9.78875l-9.80394,0.31578c0,0 0.1469,-2.09204 -1.08932,-6.6311c-1.23622,-4.53906 -3.81265,-11.36759 -3.81265,-11.36759c0,0 0.56561,2.45626 1.08933,6.6311c0.52372,4.17484 1.08933,10.73605 1.08933,10.73605l-10.89327,0.31576c0,0 0.802,-5.95523 -1.08933,-12.31489c-1.89133,-6.35967 -7.08062,-15.15679 -7.08062,-15.15679" fill="#ff4d4d" stroke="#ff8080" stroke-width="1" stroke-linecap="round"/><path d="M240.99273,139.17454c0,0 -5.28251,8.79712 -7.20782,15.15679c-1.92531,6.35966 -1.10889,12.31489 -1.10889,12.31489l-11.08894,-0.31578c0,0 0.57577,-6.56121 1.1089,-10.73606c0.53313,-4.17484 1.10889,-6.6311 1.10889,-6.6311c0,0 -2.6227,6.82853 -3.88113,11.36759c-1.25843,4.53906 -1.10889,6.6311 -1.10889,6.6311l-9.98005,-0.31578c0,0 0.17085,-6.02526 0.83167,-9.78875c0.66082,-3.76351 0.55445,-4.42073 0.55445,-4.42073c0,0 -1.82856,4.37993 -3.04946,7.5784c-1.2209,3.19847 -1.38611,6.94686 -1.38611,6.94686l-7.48504,-0.31578c0,0 -0.09848,-8.96512 0.83167,-14.20948c0.93015,-5.24436 4.71281,-17.05139 4.71281,-17.05139" fill="#ff4d4d" stroke="#ff8080" stroke-width="1" stroke-linecap="round"/><path d="M87.5976,332.4024v-304.8048h304.8048v304.8048z" fill="none" stroke="none" stroke-width="0" stroke-linecap="butt"/></g></g></svg>