<svg version="1.1" xmlns="http://www.w3.org/2000/svg" xmlns:xlink="http://www.w3.org/1999/xlink" width="304.8048" height="304.8048" viewBox="0,0,304.8048,304.8048"><g transform="translate(-87.5976,-27.5976)"><g data-paper-data="{&quot;isPaintingLayer&quot;:true}" fill-rule="nonzero" stroke-linejoin="miter" stroke-miterlimit="10" stroke-dasharray="" stroke-dashoffset="0" style="mix-blend-mode: normal"><path d="M277.90769,135.73958c0,0 2.97062,9.02958 4,15c1.02938,5.97042 1.80355,8.57604 1,14c-0.80355,5.42396 -5,13 -5,13c0,0 -2.46238,-9.07872 -5,-14.5c-2.53762,-5.42128 -3.14316,-5.87107 -6,-9c-2.85684,-3.12893 -15,-14 -15,-14" fill="#ff4d4d" stroke="#ff8080" stroke-width="1" stroke-linecap="round"/><path d="M231.86766,141.01106c0,0 -3.81541,-1.31748 -10.41209,4.99125c-6.59668,6.30872 -10.74661,11.72881 -16.08411,20.3448c-5.3375,8.616 -4.44911,12.80072 -4.44911,12.80072c0,0 -3.24387,-4.35365 -3.25518,-7.56919c-0.01131,-3.21554 0.17874,-13.94638 1.64829,-22.81757c1.46955,-8.87119 4.04884,-11.80581 4.04884,-11.80581" fill="#ff4d4d" stroke="#ff8080" stroke-width="1" stroke-linecap="round"/><path d="M243.86766,140.01106c0,0 -3.04533,0.14569 -8.31059,5.1811c-5.26525,5.03542 -8.5776,9.36155 -12.83781,16.23855c-4.26022,6.877 -3.55113,10.21712 -3.55113,10.21712c0,0 -2.58915,-3.47494 -2.59818,-6.04148c-0.00903,-2.56654 0.59555,-11.29588 2.51286,-18.21223c1.9173,-6.91636 4.4289,-6.82897 4.4289,-6.82897" fill="#ff4d4d" stroke="#ff8080" stroke-width="1" stroke-linecap="round"/><path d="M270.40769,140.23958c0,0 -11.14018,2.94599 -17.5,6.5c-6.35982,3.55401 -10.65125,6.91119 -16.5,12.5c-5.84875,5.58881 -6,9 -6,9c0,0 -1.63492,-4.01322 -1,-6.5c0.63492,-2.48678 3.40941,-10.78553 7,-17c3.59059,-6.21447 6,-5.5 6,-5.5" fill="#ff4d4d" stroke="#ff8080" stroke-width="1" stroke-linecap="round"/><path d="M87.5976,332.4024v-304.8048h304.8048v304.8048z" fill="none" stroke="none" stroke-width="0" stroke-linecap="butt"/></g></g></svg>